# xmcd
#
# Track frame offsets:
# 150
# 18592
# 34327
# 47810
# 67742
# 85547
# 103255
# 112340
# 125960
#
# Disc length: 1966 seconds
#
#
# Revision: 0
# Processed by: cddbd v1.5.1PL2 Copyright (c) Steve Scherf et al.
# Submitted via: FreeRIP 2.943 
#
DISCID=7e07ac09
DTITLE=Tomaz Lima - Joy -Mantras and bhajans - Tomaz Lima - Mantras and bhajans
DYEAR=1900
DGENRE=Other
TTITLE0=Hara Mahadeva
TTITLE1=Krishna Hey
TTITLE2=Jaya Ganesha
TTITLE3=Shiva Shambol
TTITLE4=Sri Goura Hari
TTITLE5=Guru Sharanam
TTITLE6=Radha Krishna
TTITLE7=Jaya Prashada
TTITLE8=Om Maha Guru
EXTD=
EXTT0=
EXTT1=
EXTT2=
EXTT3=
EXTT4=
EXTT5=
EXTT6=
EXTT7=
EXTT8=
PLAYORDER=
